<?xml version="1.0" encoding="UTF-8"?>
<svg width="32px" height="33.4883721px" viewBox="0 0 32 33.4883721" version="1.1" xmlns="http://www.w3.org/2000/svg" xmlns:xlink="http://www.w3.org/1999/xlink">
    <g id="Page-1" stroke="none" stroke-width="1" fill="none" fill-rule="evenodd">
        <g id="Extra-Large" transform="translate(-226, -184)" fill="#000000">
            <g id="Group-5" transform="translate(226, 184)">
                <path d="M27,0 C29.7614237,-5.07265313e-16 32,2.23857625 32,5 L32,28.4883721 C32,31.2497958 29.7614237,33.4883721 27,33.4883721 L5,33.4883721 C2.23857625,33.4883721 3.38176876e-16,31.2497958 0,28.4883721 L0,5 C-3.38176876e-16,2.23857625 2.23857625,5.07265313e-16 5,0 L27,0 Z M21.08,8 C18.64,8 16.68,9.34545455 15.72,11.0909091 L15.72,8.32727273 L11,8.32727273 L11,26 L15.72,26 L15.72,16.9818182 C15.72,14.1090909 17.68,12.2181818 20.52,12.2181818 C21.44,12.2181818 22.24,12.3636364 23,12.7272727 L23,8.36363636 C22.52,8.14545455 22,8 21.08,8 Z" id="Combined-Shape"></path>
            </g>
        </g>
    </g>
</svg>
