<?xml version="1.0" encoding="UTF-8"?>
<svg xmlns="http://www.w3.org/2000/svg" viewBox="0 0 12.02 16">
  <path fill="#222222" class="cls-1" d="M11.91,1.91c0-.1,0-.2,0-.29-.02-.44-.11-.53-.51-.56-.1,0-.2,0-.3-.01-.56-.02-1.11-.13-1.64-.31-.31-.1-.62-.22-.93-.32-.34-.11-.69-.23-1.04-.29C5.97-.13,4.49,0,3.05,.58c-.18,.07-.37,.14-.55,.21-.59,.23-1.19,.37-1.82,.4-.1,0-.19,.01-.29,.02-.23,.02-.38,.16-.38,.37C0,1.81,0,2.04,0,2.27c.03,2.46,.07,4.92,.11,7.38,0,.23,0,.46,.02,.69,.02,.3,.08,.58,.18,.86,.3,.9,.85,1.62,1.6,2.19,.29,.22,.6,.4,.91,.58,1.11,.62,2.25,1.21,3.31,2.03,.48-.34,.86-.63,1.28-.9,.64-.4,1.29-.79,1.93-1.18,.28-.17,.56-.34,.82-.53,1.23-.93,1.89-2.15,1.86-3.71-.04-2.59-.08-5.18-.11-7.77Zm-4.33,1.26c-.32,.21-.47,.64-.47,1.3l.06,4.4c.01,.76-.05,1.35-.18,1.77-.13,.42-.39,.77-.78,1.06-.39,.29-.95,.5-1.68,.64l-.03-.14c.35-.31,.61-.69,.78-1.12,.17-.43,.25-.95,.24-1.57l-.07-5.03c0-.68-.18-1.11-.51-1.29v-.15s2.64-.04,2.64-.04v.15Z"/>
</svg>
