<?xml version="1.0" encoding="UTF-8"?>
<svg id="Layer_2" data-name="Layer 2" xmlns="http://www.w3.org/2000/svg" viewBox="0 0 158.02 108">
  <defs>
    <style>
      .cls-1 {
        fill: #333;
      }
    </style>
  </defs>
  <g id="Layer_1-2" data-name="Layer 1">
    <path class="cls-1" d="M7.28,98.83c0,2.04-.19,3.61-.56,4.72-.37,1.11-1.08,2.04-2.13,2.79-1.05,.75-2.55,1.3-4.51,1.65l-.09-.37c.95-.82,1.66-1.8,2.13-2.95s.71-2.54,.71-4.18v-13.43c0-1.81-.44-2.96-1.33-3.46v-.4h7.07v.4c-.86,.53-1.3,1.69-1.3,3.46v11.76Z"/>
    <path class="cls-1" d="M22.58,90.36v.27c-.53,.2-1.07,.59-1.62,1.16s-1.05,1.27-1.48,2.08l-2,3.86v3.84c0,1.17,.29,1.93,.86,2.29v.27h-4.68v-.27c.59-.33,.88-1.09,.88-2.29v-3.07l-2.84-5.07c-.42-.76-.83-1.38-1.23-1.86s-.8-.8-1.21-.96v-.27h5.8v.27c-.26,.15-.45,.37-.57,.66s-.14,.66-.04,1.09c.1,.44,.25,.84,.45,1.23l2.15,3.8,1.68-3.54c.23-.49,.36-.95,.4-1.39s0-.81-.13-1.12c-.12-.31-.32-.56-.59-.74v-.27h4.19Z"/>
    <path class="cls-1" d="M26.58,103.87c-.89-.33-1.64-.8-2.25-1.42-.61-.62-1.08-1.38-1.4-2.27s-.48-1.89-.48-2.99c0-.98,.17-1.9,.5-2.77,.33-.87,.81-1.62,1.44-2.26,.63-.64,1.38-1.14,2.26-1.49,.88-.35,1.84-.53,2.87-.53s2.04,.18,2.92,.53c.88,.35,1.64,.85,2.27,1.48,.63,.63,1.1,1.39,1.43,2.26,.33,.87,.49,1.8,.49,2.78,0,1.05-.17,2.02-.51,2.91-.34,.89-.82,1.66-1.45,2.29-.63,.63-1.38,1.12-2.27,1.46-.89,.34-1.85,.51-2.88,.51s-2.06-.16-2.94-.49Zm4.98-.92c.56-.52,1.01-1.26,1.34-2.24,.33-.97,.49-2.15,.49-3.53s-.17-2.45-.51-3.41c-.34-.97-.79-1.71-1.36-2.23-.57-.52-1.23-.78-1.99-.78-.63,0-1.19,.17-1.68,.51-.49,.34-.9,.81-1.22,1.4s-.56,1.28-.72,2.05c-.16,.78-.24,1.59-.24,2.45s.08,1.71,.25,2.5c.16,.8,.41,1.5,.74,2.11,.33,.61,.73,1.08,1.22,1.42,.48,.34,1.03,.51,1.65,.51,.79,0,1.47-.26,2.03-.78Z"/>
    <g>
      <path class="cls-1" d="M47.38,84.1c2.7,.01,4.8,.59,6.32,1.74,1.52,1.15,2.27,2.72,2.27,4.72,0,2.12-.74,3.77-2.2,4.96-1.45,1.19-3.41,1.8-5.85,1.83-.58,0-1.01-.03-1.3-.07l-.03-.4c1.52-.34,2.65-1.01,3.37-1.99s1.09-2.41,1.1-4.29c0-1.26-.18-2.28-.56-3.09-.38-.8-.93-1.41-1.64-1.83-.72-.41-1.62-.62-2.71-.63h-.83s-.06,15.98-.06,15.98c0,1.77,.42,2.92,1.28,3.46v.4s-7.04-.03-7.04-.03v-.4c.87-.49,1.3-1.64,1.31-3.45l.05-13.09c0-1.81-.42-2.96-1.28-3.46v-.4s7.81,.03,7.81,.03Z"/>
      <path class="cls-1" d="M66.94,104.59c-.65-.47-1.4-1.27-2.25-2.41-.15-.19-.37-.5-.67-.93s-.9-1.36-1.8-2.8v-.26c.75-.13,1.38-.36,1.88-.69,.51-.33,.91-.76,1.19-1.28,.29-.53,.43-1.17,.44-1.93,0-1.04-.26-1.86-.79-2.47s-1.36-.91-2.49-.91h-.68s-.05,11.39-.05,11.39c0,1.26,.3,2.08,.91,2.47v.29s-5.02-.02-5.02-.02v-.29c.62-.35,.93-1.17,.93-2.46l.04-9.33c0-1.29-.3-2.11-.91-2.47v-.29s5.54,.02,5.54,.02c1.99,0,3.49,.37,4.48,1.08,.99,.72,1.49,1.71,1.48,2.99,0,.7-.17,1.32-.5,1.83-.33,.52-.79,.94-1.37,1.26-.58,.32-1.23,.54-1.95,.65l1.33,1.72c1.88,2.47,3.34,4.03,4.36,4.68l-.07,.29c-.25,.17-.52,.31-.81,.41-.29,.1-.65,.15-1.08,.15-.79,0-1.51-.24-2.16-.71Z"/>
      <path class="cls-1" d="M75.97,104.82c-.95-.36-1.76-.87-2.41-1.54-.66-.67-1.16-1.49-1.5-2.45s-.51-2.04-.5-3.22c0-1.06,.19-2.05,.55-2.98,.36-.93,.88-1.74,1.56-2.42,.68-.69,1.49-1.22,2.44-1.6,.95-.38,1.98-.56,3.09-.56s2.19,.2,3.14,.59c.95,.39,1.76,.92,2.43,1.6,.67,.68,1.18,1.5,1.53,2.44,.35,.94,.52,1.94,.52,2.99,0,1.13-.19,2.17-.56,3.13-.37,.96-.89,1.78-1.57,2.46-.68,.68-1.49,1.2-2.45,1.56-.96,.36-1.99,.54-3.1,.54s-2.21-.19-3.16-.54Zm5.36-.97c.61-.55,1.09-1.36,1.45-2.4,.36-1.05,.54-2.31,.54-3.79s-.17-2.63-.53-3.68c-.36-1.04-.85-1.84-1.45-2.4-.61-.56-1.32-.84-2.14-.84-.67,0-1.28,.18-1.81,.54-.53,.36-.97,.86-1.32,1.5s-.61,1.37-.78,2.21c-.17,.84-.26,1.71-.26,2.64s.08,1.84,.25,2.7,.43,1.62,.78,2.27c.35,.65,.78,1.17,1.3,1.53,.52,.37,1.11,.55,1.77,.56,.85,0,1.58-.27,2.19-.83Z"/>
      <path class="cls-1" d="M94.88,90.36c1.92,0,3.42,.42,4.51,1.24,1.08,.82,1.62,1.94,1.61,3.36,0,1.51-.53,2.69-1.57,3.54-1.04,.85-2.43,1.28-4.17,1.3-.41,0-.72-.02-.92-.05l-.02-.29c1.09-.24,1.89-.72,2.4-1.42s.78-1.72,.78-3.05c0-.9-.13-1.63-.4-2.2-.27-.57-.66-1.01-1.17-1.3-.51-.3-1.16-.44-1.93-.45h-.59s-.05,11.39-.05,11.39c0,1.26,.3,2.08,.91,2.47v.29s-5.02-.02-5.02-.02v-.29c.62-.35,.93-1.17,.93-2.46l.04-9.33c0-1.29-.3-2.11-.91-2.47v-.29s5.57,.02,5.57,.02Z"/>
      <path class="cls-1" d="M114.23,101.48l-.02,3.78-10.93-.04v-.29c.62-.36,.93-1.18,.93-2.46l.04-9.33c0-1.29-.3-2.11-.91-2.47v-.29s10.45,.04,10.45,.04v3.65s-.3,0-.3,0c-.38-.93-.92-1.65-1.63-2.18-.71-.53-1.59-.8-2.63-.8h-1.8s-.03,6.35-.03,6.35l1.47-.1c.48-.04,.9-.18,1.26-.41s.62-.51,.82-.82c.19-.31,.35-.62,.47-.91h.26s-.02,4.95-.02,4.95h-.26c-.19-.44-.41-.82-.68-1.15s-.56-.56-.89-.7c-.33-.14-.66-.23-.98-.26l-1.45-.12-.02,4.66c0,.67,.14,1.17,.42,1.49,.29,.32,.73,.48,1.33,.48h.57c2.05,.01,3.46-1.02,4.21-3.08h.31Z"/>
      <path class="cls-1" d="M125.71,104.83c-.65-.47-1.4-1.27-2.25-2.41-.15-.19-.37-.5-.67-.93s-.9-1.36-1.8-2.8v-.26c.75-.13,1.38-.36,1.88-.69,.51-.33,.91-.76,1.19-1.28,.29-.53,.43-1.17,.44-1.93,0-1.04-.26-1.86-.79-2.47s-1.36-.91-2.49-.91h-.68s-.05,11.39-.05,11.39c0,1.26,.3,2.08,.91,2.47v.29s-5.02-.02-5.02-.02v-.29c.62-.35,.93-1.17,.93-2.46l.04-9.33c0-1.29-.3-2.11-.91-2.47v-.29s5.54,.02,5.54,.02c1.99,0,3.49,.37,4.48,1.08,.99,.72,1.49,1.71,1.48,2.99,0,.7-.17,1.32-.5,1.83-.33,.52-.79,.94-1.37,1.26-.58,.32-1.23,.54-1.95,.65l1.33,1.72c1.88,2.47,3.34,4.03,4.36,4.68l-.07,.29c-.25,.17-.52,.31-.81,.41-.29,.1-.65,.15-1.08,.15-.79,0-1.51-.24-2.16-.71Z"/>
      <path class="cls-1" d="M142.95,90.55l-.02,4.36h-.29c-.35-1.21-.83-2.12-1.45-2.75s-1.4-.94-2.34-.94h-.79s-.05,11.39-.05,11.39c0,1.25,.31,2.07,.94,2.47v.29s-5.04-.02-5.04-.02v-.29c.62-.35,.93-1.17,.93-2.46l.05-11.39h-.7c-.94,0-1.72,.3-2.35,.92-.63,.62-1.12,1.53-1.47,2.73h-.29s.02-4.36,.02-4.36l12.85,.05Z"/>
      <path class="cls-1" d="M158.02,90.61v.29c-.57,.22-1.16,.63-1.75,1.25s-1.13,1.36-1.6,2.24l-2.17,4.15-.02,4.14c0,1.26,.3,2.08,.91,2.47v.29s-5.04-.02-5.04-.02v-.29c.63-.35,.95-1.17,.96-2.46v-3.3s-3.02-5.47-3.02-5.47c-.45-.82-.89-1.49-1.31-2.01s-.85-.86-1.29-1.04v-.29s6.25,.03,6.25,.03v.29c-.28,.16-.49,.4-.62,.71s-.15,.71-.05,1.18c.1,.47,.26,.91,.48,1.32l2.29,4.1,1.82-3.8c.25-.53,.4-1.03,.43-1.49s0-.87-.14-1.21c-.13-.34-.34-.6-.63-.79v-.29s4.51,.02,4.51,.02Z"/>
    </g>
    <path class="cls-1" d="M103.84,9.6c0-.47,0-.95-.01-1.42-.07-2.1-.48-2.57-2.4-2.73-.48-.03-.95-.04-1.42-.07-2.72-.11-5.32-.71-7.86-1.61-1.49-.53-2.96-1.11-4.47-1.59-1.65-.54-3.3-1.14-4.99-1.45-7.31-1.35-14.48-.87-21.43,1.89-.88,.34-1.78,.65-2.66,.97-2.84,1.05-5.76,1.72-8.79,1.82-.47,.01-.94,.04-1.42,.09-1.11,.1-1.82,.74-1.86,1.73-.06,1.11-.09,2.2-.09,3.31-.01,11.86-.01,23.7,0,35.56,0,1.11,.01,2.22,.06,3.31,.07,1.44,.36,2.8,.8,4.18,1.38,4.37,3.97,7.88,7.55,10.65,1.38,1.07,2.86,1.99,4.37,2.86,5.32,3.07,10.76,5.99,15.8,10.02,2.32-1.59,4.21-3,6.21-4.24,3.1-1.91,6.26-3.7,9.38-5.56,1.35-.81,2.73-1.58,4.01-2.52,5.99-4.39,9.26-10.21,9.24-17.76-.03-12.48-.01-24.97-.01-37.46Zm-20.96,5.76c-1.55,.97-2.33,3.04-2.33,6.24v21.23c0,3.68-.34,6.53-1.01,8.53-.67,2-1.95,3.7-3.84,5.05-1.91,1.35-4.61,2.35-8.15,2.99l-.16-.67c1.71-1.49,2.99-3.27,3.84-5.33,.85-2.06,1.28-4.58,1.28-7.55V21.6c0-3.27-.8-5.35-2.39-6.24v-.73h12.76v.73Z"/>
  </g>
</svg>
