<?xml version="1.0" encoding="UTF-8"?>
<svg xmlns="http://www.w3.org/2000/svg" viewBox="0 0 164.77 36">
  <g>
    <path d="M26.79,4.29c0-.22,0-.44-.02-.66-.05-.98-.24-1.2-1.14-1.26-.23-.01-.44-.01-.66-.02-1.27-.04-2.49-.3-3.68-.7-.7-.24-1.39-.5-2.09-.71-.77-.24-1.55-.51-2.34-.64C13.43-.29,10.09-.02,6.87,1.31c-.41,.17-.83,.32-1.23,.47-1.32,.51-2.68,.84-4.09,.91-.22,0-.44,.03-.66,.05-.52,.05-.84,.36-.86,.82C0,4.08,0,4.59,0,5.11c.07,5.54,.15,11.06,.24,16.6,0,.52,.02,1.04,.05,1.55,.04,.67,.18,1.31,.4,1.95,.67,2.03,1.9,3.65,3.6,4.92,.65,.49,1.35,.91,2.06,1.3,2.5,1.4,5.06,2.72,7.44,4.57,1.07-.76,1.94-1.43,2.87-2.02,1.43-.91,2.9-1.77,4.34-2.66,.63-.39,1.26-.75,1.85-1.2,2.76-2.09,4.25-4.83,4.2-8.35-.1-5.83-.17-11.65-.26-17.48Zm-9.74,2.83c-.72,.46-1.07,1.44-1.05,2.93l.14,9.91c.02,1.72-.12,3.05-.41,3.99-.3,.94-.88,1.74-1.76,2.38-.88,.64-2.13,1.13-3.78,1.45l-.08-.31c.79-.71,1.37-1.55,1.76-2.51,.38-.97,.57-2.15,.55-3.53l-.16-11.32c-.02-1.53-.41-2.49-1.16-2.9v-.34s5.95-.09,5.95-.09v.34Z"/>
    <path d="M42.6,19.59c0,1.64-.16,2.91-.46,3.81-.3,.9-.88,1.65-1.72,2.25-.85,.6-2.06,1.05-3.64,1.33l-.07-.3c.76-.66,1.34-1.45,1.72-2.38s.58-2.05,.58-3.37l.02-10.84c0-1.46-.35-2.39-1.07-2.79v-.32s5.7,.01,5.7,.01v.32c-.7,.43-1.05,1.36-1.05,2.79l-.02,9.49Z"/>
    <path d="M55.46,13.57v.21c-.42,.17-.86,.49-1.29,.96s-.83,1.03-1.17,1.7l-1.57,3.14,.04,3.1c.01,.95,.25,1.56,.72,1.84v.21s-3.77,.05-3.77,.05v-.21c.47-.27,.69-.89,.68-1.86l-.04-2.47-2.35-4.06c-.35-.61-.69-1.11-1.01-1.49s-.65-.63-.98-.76v-.21s4.68-.07,4.68-.07v.21c-.2,.12-.36,.3-.45,.54s-.1,.53-.02,.88c.08,.35,.21,.68,.38,.98l1.78,3.04,1.31-2.87c.18-.4,.28-.77,.31-1.13s-.02-.65-.12-.91c-.1-.25-.26-.45-.49-.59v-.21s3.38-.05,3.38-.05Z"/>
    <path d="M58.85,24.43c-.72-.25-1.33-.63-1.83-1.12-.5-.49-.89-1.1-1.16-1.81s-.41-1.52-.42-2.41c-.01-.79,.11-1.54,.37-2.24,.26-.7,.64-1.31,1.14-1.84,.5-.52,1.1-.93,1.8-1.23,.71-.3,1.48-.45,2.31-.46s1.65,.12,2.37,.4c.72,.28,1.33,.67,1.85,1.17,.51,.5,.91,1.11,1.18,1.81,.27,.7,.42,1.45,.43,2.24,.01,.85-.11,1.63-.38,2.36-.27,.72-.65,1.35-1.15,1.86-.5,.52-1.1,.92-1.81,1.21-.71,.29-1.48,.43-2.32,.45s-1.66-.11-2.38-.36Zm4.01-.8c.45-.42,.8-1.03,1.05-1.82,.25-.79,.37-1.74,.36-2.85s-.17-1.97-.45-2.75c-.29-.78-.66-1.37-1.12-1.78-.46-.41-1-.61-1.62-.6-.51,0-.95,.15-1.35,.43-.39,.28-.71,.66-.97,1.14s-.44,1.04-.55,1.67c-.12,.63-.17,1.29-.16,1.98s.09,1.38,.23,2.02c.14,.64,.35,1.21,.62,1.69,.27,.49,.6,.86,1,1.13,.39,.27,.84,.4,1.33,.39,.64,0,1.18-.23,1.63-.65Z"/>
    <g>
      <path d="M75.4,8.23c2.18-.02,3.88,.42,5.12,1.33,1.24,.91,1.87,2.17,1.88,3.78,.02,1.71-.55,3.05-1.72,4.03-1.16,.98-2.73,1.49-4.7,1.54-.47,0-.81,0-1.05-.04l-.03-.32c1.23-.29,2.13-.84,2.7-1.65s.85-1.96,.84-3.47c-.01-1.01-.17-1.84-.49-2.49-.31-.64-.76-1.13-1.35-1.46-.58-.33-1.32-.48-2.2-.48h-.67s.13,12.91,.13,12.91c.01,1.43,.37,2.35,1.07,2.78v.32s-5.68,.06-5.68,.06v-.32c.69-.41,1.03-1.34,1.01-2.8l-.11-10.56c-.01-1.46-.37-2.39-1.07-2.78v-.32s6.3-.06,6.3-.06Z"/>
      <path d="M91.43,24.55c-.53-.37-1.14-1.01-1.84-1.92-.12-.15-.3-.4-.55-.74s-.74-1.09-1.49-2.24v-.21c.6-.11,1.1-.3,1.51-.57,.41-.27,.72-.62,.95-1.05,.23-.43,.34-.95,.33-1.57,0-.84-.23-1.5-.67-1.98s-1.11-.72-2.02-.71h-.55s.09,9.2,.09,9.2c.01,1.02,.27,1.68,.77,1.98v.23s-4.04,.04-4.04,.04v-.23c.49-.29,.73-.95,.72-2l-.08-7.53c-.01-1.04-.27-1.7-.77-1.98v-.23s4.47-.05,4.47-.05c1.61-.02,2.82,.26,3.63,.82,.81,.57,1.22,1.36,1.23,2.39,0,.57-.12,1.06-.38,1.49-.26,.42-.63,.77-1.09,1.03-.47,.27-.99,.45-1.57,.55l1.1,1.37c1.55,1.97,2.74,3.21,3.57,3.73l-.05,.23c-.2,.14-.42,.26-.65,.34-.24,.09-.53,.13-.87,.13-.64,0-1.22-.18-1.75-.55Z"/>
      <path d="M98.71,24.63c-.77-.28-1.43-.68-1.97-1.21-.54-.53-.95-1.19-1.24-1.96s-.43-1.64-.44-2.6c0-.85,.13-1.66,.41-2.41,.28-.75,.69-1.41,1.23-1.97,.54-.56,1.19-1,1.95-1.32,.76-.32,1.59-.48,2.49-.49s1.77,.14,2.54,.44c.77,.3,1.43,.72,1.98,1.27,.55,.54,.97,1.19,1.26,1.95,.29,.75,.44,1.56,.45,2.41,0,.91-.13,1.76-.42,2.53-.29,.78-.7,1.45-1.24,2-.54,.56-1.19,.99-1.96,1.29-.77,.3-1.6,.46-2.5,.47s-1.79-.12-2.56-.4Zm4.31-.84c.49-.45,.87-1.11,1.14-1.96,.28-.85,.41-1.87,.4-3.07s-.17-2.12-.47-2.96c-.31-.84-.71-1.48-1.2-1.92-.5-.44-1.08-.66-1.74-.66-.54,0-1.03,.16-1.45,.46-.42,.3-.77,.71-1.04,1.23s-.47,1.11-.6,1.79c-.13,.68-.19,1.39-.18,2.13s.09,1.48,.24,2.17,.37,1.3,.66,1.82c.29,.52,.65,.93,1.07,1.22,.42,.29,.9,.43,1.43,.43,.69,0,1.27-.24,1.76-.69Z"/>
      <path d="M113.8,12.74c1.55-.02,2.77,.3,3.65,.95,.88,.65,1.33,1.55,1.34,2.69,.01,1.22-.4,2.18-1.22,2.87-.83,.69-1.94,1.06-3.35,1.1-.33,0-.58,0-.75-.03l-.02-.23c.87-.21,1.52-.6,1.92-1.17s.61-1.4,.6-2.47c0-.72-.12-1.31-.35-1.77-.22-.46-.54-.81-.96-1.04-.42-.23-.94-.35-1.57-.34h-.48s.09,9.2,.09,9.2c.01,1.02,.27,1.68,.77,1.98v.23s-4.04,.04-4.04,.04v-.23c.49-.29,.73-.95,.72-2l-.08-7.53c-.01-1.04-.27-1.7-.77-1.98v-.23s4.49-.05,4.49-.05Z"/>
      <path d="M129.55,21.49l.03,3.05-8.82,.09v-.23c.49-.3,.73-.97,.72-2l-.08-7.53c-.01-1.04-.27-1.7-.77-1.98v-.23s8.43-.09,8.43-.09l.03,2.95h-.23c-.32-.74-.76-1.32-1.34-1.74-.58-.42-1.29-.63-2.13-.62h-1.46s.05,5.15,.05,5.15l1.19-.1c.39-.04,.73-.16,1.01-.35s.5-.42,.65-.67c.15-.26,.27-.5,.37-.74h.21s.04,3.99,.04,3.99h-.21c-.16-.35-.34-.66-.56-.92s-.46-.44-.72-.55c-.27-.11-.53-.17-.79-.2l-1.17-.08,.04,3.76c0,.54,.12,.94,.36,1.19,.23,.25,.59,.38,1.08,.37h.46c1.66-.02,2.78-.87,3.37-2.54h.25Z"/>
      <path d="M138.85,24.06c-.53-.37-1.14-1.01-1.84-1.92-.12-.15-.3-.4-.55-.74s-.74-1.09-1.49-2.24v-.21c.6-.11,1.1-.3,1.51-.57,.41-.27,.72-.62,.95-1.05,.23-.43,.34-.95,.33-1.57,0-.84-.23-1.5-.67-1.98s-1.11-.72-2.02-.71h-.55s.09,9.2,.09,9.2c.01,1.02,.27,1.68,.77,1.98v.23s-4.04,.04-4.04,.04v-.23c.49-.29,.73-.95,.72-2l-.08-7.53c-.01-1.04-.27-1.7-.77-1.98v-.23s4.47-.05,4.47-.05c1.61-.02,2.82,.26,3.63,.82,.81,.57,1.22,1.36,1.23,2.39,0,.57-.12,1.06-.38,1.49-.26,.42-.63,.77-1.09,1.03-.47,.27-.99,.45-1.57,.55l1.1,1.37c1.55,1.97,2.74,3.21,3.57,3.73l-.05,.23c-.2,.14-.42,.26-.65,.34-.24,.09-.53,.13-.87,.13-.64,0-1.22-.18-1.75-.55Z"/>
      <path d="M152.61,12.34l.04,3.52h-.23c-.29-.97-.7-1.7-1.2-2.2s-1.14-.74-1.9-.74h-.64s.09,9.2,.09,9.2c.01,1.01,.27,1.67,.78,1.98v.23s-4.06,.04-4.06,.04v-.23c.49-.29,.73-.95,.72-2l-.09-9.2h-.57c-.76,.01-1.38,.27-1.88,.78-.5,.51-.88,1.25-1.16,2.22h-.23s-.04-3.51-.04-3.51l10.37-.11Z"/>
      <path d="M164.76,12.22v.23c-.46,.18-.92,.52-1.4,1.03s-.9,1.11-1.27,1.82l-1.71,3.37,.03,3.34c.01,1.02,.27,1.68,.77,1.98v.23s-4.06,.04-4.06,.04v-.23c.5-.29,.75-.95,.74-2l-.03-2.66-2.51-4.38c-.37-.66-.73-1.19-1.08-1.6-.35-.41-.7-.69-1.06-.82v-.23s5.04-.05,5.04-.05v.23c-.22,.13-.39,.33-.49,.58s-.11,.57-.03,.95c.09,.38,.22,.73,.4,1.06l1.9,3.28,1.42-3.09c.2-.43,.31-.83,.33-1.21s-.02-.7-.13-.98c-.11-.27-.28-.48-.52-.63v-.23s3.64-.04,3.64-.04Z"/>
    </g>
  </g>
</svg>
