<?xml version="1.0" encoding="UTF-8"?>
<svg xmlns="http://www.w3.org/2000/svg" viewBox="0 0 146.46 32">
    <path d="M23.81,3.81c0-.19,0-.4-.01-.59-.04-.87-.22-1.06-1.01-1.12-.2,0-.4-.01-.59-.02-1.13-.03-2.21-.26-3.27-.62-.62-.21-1.23-.44-1.86-.63-.69-.21-1.38-.45-2.08-.57C11.94-.26,8.97-.02,6.1,1.17c-.36,.15-.73,.28-1.1,.42-1.17,.45-2.38,.75-3.64,.81-.19,0-.39,.02-.59,.04-.46,.05-.75,.32-.76,.73C0,3.63,0,4.08,0,4.54c.06,4.92,.13,9.83,.21,14.75,0,.46,.02,.92,.04,1.37,.04,.6,.16,1.16,.36,1.73,.6,1.8,1.69,3.24,3.2,4.37,.58,.43,1.2,.81,1.83,1.16,2.22,1.24,4.5,2.42,6.61,4.07,.95-.67,1.73-1.27,2.55-1.79,1.27-.81,2.57-1.57,3.86-2.36,.56-.34,1.12-.67,1.65-1.07,2.46-1.86,3.78-4.29,3.73-7.42-.09-5.18-.15-10.36-.23-15.54Zm-8.66,2.51c-.64,.41-.95,1.28-.93,2.6l.13,8.81c.02,1.53-.1,2.71-.37,3.55-.27,.84-.79,1.55-1.56,2.12-.78,.57-1.9,1-3.36,1.29l-.07-.28c.7-.63,1.22-1.37,1.56-2.24,.34-.86,.5-1.91,.49-3.14l-.14-10.06c-.02-1.36-.36-2.21-1.03-2.58v-.3s5.29-.08,5.29-.08v.3Z"/>
    <path d="M37.87,17.42c0,1.46-.14,2.59-.41,3.39-.27,.8-.78,1.46-1.53,2-.75,.54-1.83,.93-3.24,1.18l-.07-.27c.68-.59,1.19-1.29,1.53-2.11s.51-1.82,.51-3l.02-9.63c0-1.3-.31-2.13-.95-2.48v-.29s5.07,0,5.07,0v.29c-.62,.38-.93,1.21-.93,2.48l-.02,8.44Z"/>
    <path d="M49.3,12.07v.19c-.38,.15-.76,.44-1.15,.85s-.74,.92-1.04,1.51l-1.4,2.79,.04,2.76c.01,.84,.23,1.38,.64,1.63v.19s-3.35,.05-3.35,.05v-.19c.41-.24,.62-.79,.6-1.65l-.03-2.2-2.09-3.61c-.31-.54-.61-.98-.9-1.32s-.58-.56-.88-.68v-.19s4.16-.06,4.16-.06v.19c-.18,.11-.32,.27-.4,.48s-.09,.47-.02,.78c.07,.31,.18,.6,.34,.88l1.58,2.7,1.17-2.55c.16-.35,.25-.69,.27-1s-.02-.58-.11-.8c-.09-.22-.24-.4-.43-.52v-.19s3-.04,3-.04Z"/>
    <path d="M52.31,21.72c-.64-.23-1.18-.56-1.63-1-.45-.44-.79-.98-1.03-1.61s-.36-1.35-.37-2.14c-.01-.7,.1-1.37,.33-1.99,.23-.62,.57-1.17,1.01-1.63,.44-.47,.98-.83,1.6-1.09,.63-.26,1.31-.4,2.05-.41s1.46,.11,2.1,.35c.64,.25,1.19,.59,1.64,1.04,.46,.45,.81,.98,1.05,1.61,.24,.62,.37,1.29,.38,1.99,.01,.75-.1,1.45-.34,2.09-.24,.64-.57,1.2-1.02,1.66-.44,.46-.98,.82-1.61,1.07-.63,.25-1.32,.39-2.06,.4s-1.48-.1-2.12-.32Zm3.56-.71c.4-.38,.71-.92,.94-1.62,.22-.7,.33-1.55,.32-2.53s-.15-1.75-.4-2.44c-.25-.69-.59-1.22-1-1.58-.41-.37-.89-.54-1.44-.54-.45,0-.85,.13-1.2,.38-.35,.25-.63,.59-.86,1.02s-.39,.92-.49,1.48c-.1,.56-.15,1.15-.14,1.76s.08,1.22,.2,1.79c.13,.57,.31,1.07,.55,1.5,.24,.43,.54,.77,.89,1.01,.35,.24,.75,.36,1.19,.35,.57,0,1.05-.2,1.45-.58Z"/>
      <path d="M67.02,7.32c1.93-.02,3.45,.37,4.55,1.18,1.1,.81,1.66,1.93,1.67,3.36,.02,1.52-.49,2.71-1.53,3.58-1.03,.87-2.43,1.32-4.18,1.37-.41,0-.72,0-.93-.03l-.02-.29c1.09-.26,1.89-.75,2.4-1.46s.76-1.74,.74-3.09c0-.9-.15-1.64-.43-2.21-.28-.57-.68-1-1.2-1.29-.52-.29-1.17-.43-1.95-.42h-.6s.12,11.47,.12,11.47c.01,1.27,.33,2.09,.95,2.47v.29s-5.04,.05-5.04,.05v-.29c.61-.36,.91-1.19,.9-2.49l-.1-9.39c-.01-1.3-.33-2.12-.95-2.47v-.29s5.6-.06,5.6-.06Z"/>
      <path d="M81.27,21.82c-.47-.33-1.02-.9-1.64-1.7-.11-.14-.27-.36-.49-.66s-.66-.97-1.32-1.99v-.19c.53-.1,.98-.27,1.34-.51,.36-.24,.64-.55,.84-.93,.2-.38,.3-.84,.29-1.39,0-.75-.21-1.33-.59-1.76s-.99-.64-1.8-.63h-.49s.08,8.18,.08,8.18c0,.9,.24,1.49,.68,1.76v.21s-3.6,.04-3.6,.04v-.21c.44-.26,.65-.85,.64-1.77l-.07-6.69c0-.93-.24-1.51-.68-1.76v-.21s3.97-.04,3.97-.04c1.43-.01,2.51,.23,3.23,.73,.72,.5,1.09,1.21,1.1,2.13,0,.5-.11,.95-.34,1.32-.23,.38-.56,.68-.97,.92-.41,.24-.88,.4-1.39,.49l.97,1.22c1.38,1.75,2.43,2.86,3.18,3.31l-.05,.21c-.18,.13-.37,.23-.58,.31-.21,.08-.47,.12-.77,.12-.57,0-1.09-.16-1.56-.49Z"/>
      <path d="M87.75,21.9c-.69-.25-1.27-.6-1.75-1.08-.48-.47-.84-1.05-1.1-1.74s-.39-1.46-.39-2.31c0-.76,.11-1.47,.36-2.14,.25-.67,.62-1.26,1.09-1.76,.48-.5,1.06-.89,1.73-1.17,.68-.28,1.41-.43,2.21-.43s1.57,.12,2.26,.39c.69,.27,1.27,.64,1.76,1.13,.49,.48,.86,1.06,1.12,1.73,.26,.67,.39,1.38,.4,2.14,0,.81-.12,1.56-.37,2.25-.26,.69-.62,1.28-1.1,1.78-.48,.49-1.06,.88-1.74,1.15-.68,.27-1.42,.41-2.22,.42s-1.59-.11-2.28-.36Zm3.84-.75c.43-.4,.77-.98,1.02-1.74,.24-.75,.36-1.66,.35-2.73s-.15-1.89-.42-2.63c-.27-.74-.63-1.31-1.07-1.71-.44-.4-.96-.59-1.55-.58-.48,0-.91,.14-1.29,.41-.38,.27-.69,.63-.93,1.09s-.42,.99-.54,1.59c-.11,.6-.17,1.23-.16,1.9s.08,1.32,.21,1.93,.33,1.15,.59,1.62c.26,.47,.57,.83,.95,1.09,.38,.26,.8,.39,1.27,.38,.61,0,1.13-.21,1.56-.62Z"/>
      <path d="M101.16,11.33c1.38-.01,2.46,.27,3.24,.84,.78,.58,1.18,1.37,1.19,2.39,.01,1.08-.35,1.93-1.09,2.55-.73,.62-1.73,.94-2.98,.98-.3,0-.52,0-.66-.02l-.02-.21c.78-.19,1.35-.53,1.71-1.04s.54-1.24,.53-2.2c0-.64-.11-1.17-.31-1.58-.2-.41-.48-.72-.85-.92-.37-.21-.83-.31-1.39-.3h-.43s.08,8.18,.08,8.18c0,.9,.24,1.49,.68,1.76v.21s-3.6,.04-3.6,.04v-.21c.44-.26,.65-.85,.64-1.77l-.07-6.69c0-.93-.24-1.51-.68-1.76v-.21s3.99-.04,3.99-.04Z"/>
      <path d="M115.16,19.11l.03,2.71-7.84,.08v-.21c.44-.27,.65-.86,.64-1.77l-.07-6.69c0-.93-.24-1.51-.68-1.76v-.21s7.49-.08,7.49-.08l.03,2.62h-.2c-.28-.66-.68-1.17-1.19-1.55-.51-.37-1.15-.56-1.89-.55h-1.29s.05,4.57,.05,4.57l1.06-.09c.35-.04,.65-.14,.9-.31s.44-.37,.58-.6c.13-.23,.24-.45,.32-.66h.19s.04,3.55,.04,3.55h-.19c-.14-.31-.31-.58-.5-.81s-.41-.39-.64-.49c-.24-.1-.47-.16-.7-.17l-1.04-.07,.03,3.35c0,.48,.11,.84,.32,1.06,.21,.22,.53,.33,.96,.33h.41c1.47-.02,2.47-.77,2.99-2.26h.22Z"/>
      <path d="M123.42,21.39c-.47-.33-1.02-.9-1.64-1.7-.11-.14-.27-.36-.49-.66s-.66-.97-1.32-1.99v-.19c.53-.1,.98-.27,1.34-.51,.36-.24,.64-.55,.84-.93,.2-.38,.3-.84,.29-1.39,0-.75-.21-1.33-.59-1.76s-.99-.64-1.8-.63h-.49s.08,8.18,.08,8.18c0,.9,.24,1.49,.68,1.76v.21s-3.6,.04-3.6,.04v-.21c.44-.26,.65-.85,.64-1.77l-.07-6.69c0-.93-.24-1.51-.68-1.76v-.21s3.97-.04,3.97-.04c1.43-.01,2.51,.23,3.23,.73,.72,.5,1.09,1.21,1.1,2.13,0,.5-.11,.95-.34,1.32-.23,.38-.56,.68-.97,.92-.41,.24-.88,.4-1.39,.49l.97,1.22c1.38,1.75,2.43,2.86,3.18,3.31l-.05,.21c-.18,.13-.37,.23-.58,.31-.21,.08-.47,.12-.77,.12-.57,0-1.09-.16-1.56-.49Z"/>
      <path d="M135.65,10.97l.03,3.12h-.21c-.26-.86-.62-1.51-1.07-1.95s-1.01-.66-1.69-.65h-.57s.08,8.18,.08,8.18c0,.89,.24,1.48,.7,1.76v.21s-3.61,.04-3.61,.04v-.21c.44-.26,.65-.85,.64-1.77l-.08-8.17h-.5c-.67,.01-1.23,.24-1.67,.69-.44,.45-.79,1.11-1.03,1.98h-.2s-.03-3.12-.03-3.12l9.22-.09Z"/>
      <path d="M146.46,10.86v.21c-.41,.16-.82,.47-1.24,.91s-.8,.99-1.13,1.62l-1.52,3,.03,2.97c0,.9,.24,1.49,.68,1.76v.21s-3.61,.04-3.61,.04v-.21c.45-.26,.67-.85,.66-1.77l-.02-2.37-2.23-3.89c-.33-.59-.65-1.06-.96-1.43s-.62-.61-.94-.73v-.21s4.48-.05,4.48-.05v.21c-.2,.12-.34,.29-.43,.52s-.1,.51-.02,.84c.08,.34,.2,.65,.36,.94l1.69,2.92,1.27-2.74c.17-.38,.27-.74,.3-1.08s-.01-.63-.11-.87c-.1-.24-.25-.43-.46-.56v-.21s3.23-.03,3.23-.03Z"/>
</svg>
